<svg width="140" height="24" viewBox="0 0 140 24" fill="none" xmlns="http://www.w3.org/2000/svg">
<g clip-path="url(#clip0_3019_62)">
<g clip-path="url(#clip1_3019_62)">
<path fill-rule="evenodd" clip-rule="evenodd" d="M45.0001 5L51.2873 17.5571L50.4966 19.1196L43.168 5H45.0001ZM65.3854 5L58.1146 19.1196L50.4581 5H52.2324L58.1146 16.051C58.4103 15.4861 58.7446 14.8367 59.1174 14.1025C59.4903 13.3682 59.8664 12.6121 60.2457 11.8339C60.625 11.0557 61.0011 10.287 61.3739 9.52769C61.7467 8.76837 62.0843 8.07494 62.3864 7.4474C62.6886 6.81986 62.9425 6.28646 63.1482 5.84718C63.3539 5.4079 63.4889 5.12551 63.5532 5H65.3854ZM79.2602 6.37431V5H69.9258V19.1384H79.2602V17.7642H71.353V12.7752H77.9488V11.4009H71.353V6.37431H79.2602ZM83.415 19.1384V5H84.8421V17.7642H92.7494V19.1384H83.415ZM96.9041 5V19.1384H103.828C103.931 19.1384 104.159 19.1039 104.512 19.0349C104.866 18.9658 105.249 18.8121 105.66 18.5737C105.853 18.4607 106.055 18.3132 106.267 18.1313C106.48 17.9492 106.669 17.7265 106.836 17.4629C107.004 17.1993 107.142 16.8887 107.251 16.5311C107.36 16.1733 107.415 15.756 107.415 15.2791C107.415 14.7394 107.344 14.2687 107.203 13.8671C107.061 13.4655 106.881 13.1204 106.663 12.8317C106.444 12.543 106.197 12.3108 105.92 12.1351C105.644 11.9594 105.364 11.8213 105.081 11.7209C105.364 11.4448 105.608 11.0652 105.814 10.582C106.02 10.0988 106.123 9.51828 106.123 8.84053C106.123 8.3385 106.068 7.90551 105.959 7.54153C105.85 7.17756 105.711 6.86379 105.544 6.60023C105.377 6.33666 105.191 6.11702 104.985 5.94131C104.779 5.7656 104.58 5.62126 104.387 5.50831C104.168 5.3828 103.96 5.28553 103.76 5.2165C103.561 5.14747 103.381 5.09727 103.22 5.06589C103.059 5.03451 102.928 5.01569 102.825 5.00941C102.722 5.00314 102.664 5 102.651 5H96.9041ZM103.789 17.7642C103.841 17.7642 103.982 17.7422 104.214 17.6982C104.445 17.6543 104.692 17.5508 104.956 17.3877C105.22 17.2244 105.454 16.9766 105.66 16.6439C105.866 16.3114 105.969 15.8564 105.969 15.2791C105.969 14.7017 105.866 14.2468 105.66 13.9142C105.454 13.5816 105.22 13.3306 104.956 13.1611C104.692 12.9917 104.442 12.885 104.204 12.8411C103.966 12.7972 103.821 12.7752 103.77 12.7752H98.3313V17.7642H103.789ZM103.066 11.3256C102.841 11.3758 102.703 11.4009 102.651 11.4009H98.3313V6.37431H102.651C102.677 6.37431 102.799 6.39313 103.018 6.43078C103.236 6.46844 103.474 6.56571 103.731 6.72259C103.988 6.87948 104.223 7.12422 104.435 7.45681C104.647 7.78941 104.753 8.25065 104.753 8.84053C104.753 9.41788 104.654 9.87597 104.455 10.2148C104.255 10.5537 104.03 10.811 103.78 10.9867C103.529 11.1624 103.291 11.2754 103.066 11.3256ZM121.637 5V6.37431H113.73V11.4009H120.325V12.7752H113.73V17.7642H121.637V19.1384H112.303V5H121.637ZM132.33 13.1141L137.151 19.1384H139.042L133.429 12.0598L139.042 5H137.151L132.33 11.0244L127.778 5H125.637L131.25 12.0598L125.637 19.1384H127.778L132.33 13.1141Z" fill="#E4E5EA"/>
</g>
<g clip-path="url(#clip2_3019_62)">
<path fill-rule="evenodd" clip-rule="evenodd" d="M24.5946 0H0V12.7841H1.3208V1.28886H23.2738V5.52746H21.0842V5.53671H21.0684C21.0096 5.65146 20.8861 5.90965 20.698 6.31127C20.5098 6.7129 20.2776 7.20058 20.0012 7.77434C19.7249 8.34809 19.4162 8.98207 19.0752 9.67634C18.7342 10.3706 18.3901 11.0734 18.0433 11.7848C17.6964 12.4963 17.3524 13.1876 17.0114 13.859C16.6704 14.5302 16.3647 15.1241 16.0941 15.6404L10.7143 5.53671H9.09151L16.0941 18.446L22.1009 6.7853H24.5927V6.77176H24.5946V0ZM0 17.1961H0.00609518V17.1819H8.47042L2.42401 5.53671H4.0997L9.84995 17.0175L9.1268 18.446L9.1157 18.4247V18.4398H1.3208V22.7111H23.2738V11.1838H24.5946V24H0V17.1961ZM33.6949 24V0H35.0517V24H33.6949Z" fill="#E4E5EA"/>
</g>
</g>
<defs>
<clipPath id="clip0_3019_62">
<rect width="140" height="24" fill="white"/>
</clipPath>
<clipPath id="clip1_3019_62">
<rect width="97" height="15" fill="white" transform="translate(43 5)"/>
</clipPath>
<clipPath id="clip2_3019_62">
<rect width="35" height="24" fill="white"/>
</clipPath>
</defs>
</svg>
